<svg width="25" height="25" viewBox="0 0 25 25" fill="none" xmlns="http://www.w3.org/2000/svg">
<path d="M15.2996 13.0865C15.1183 13.0831 14.9412 13.0317 14.7862 12.9376L12.3219 11.4693L9.87301 12.9376C9.75739 13.0071 9.62922 13.053 9.49582 13.073C9.36242 13.0929 9.22641 13.0863 9.09554 13.0536C8.96468 13.021 8.84153 12.9629 8.73313 12.8826C8.62472 12.8024 8.53318 12.7016 8.46374 12.5859C8.3943 12.4703 8.34831 12.3421 8.3284 12.2087C8.30849 12.0753 8.31505 11.9393 8.34771 11.8085C8.38037 11.6776 8.43848 11.5545 8.51873 11.446C8.59898 11.3376 8.69979 11.2461 8.81542 11.1767L12.3219 9.07174L15.8284 11.1767C16.0222 11.2917 16.1729 11.4673 16.257 11.6764C16.3412 11.8855 16.3542 12.1165 16.294 12.3337C16.2339 12.5509 16.1039 12.7423 15.9242 12.8784C15.7445 13.0144 15.525 13.0876 15.2996 13.0865Z" fill="url(#paint0_linear_249_1179)"/>
<path d="M2.67007 24.6431C2.49475 24.639 2.32129 24.606 2.15668 24.5455C1.5406 24.335 0.708903 23.6984 0.359794 21.9015V21.8348C-0.0120114 18.9856 -0.0911446 16.1058 0.123632 13.2405C0.411133 9.5903 1.02721 8.07065 1.46873 7.24408C2.54992 5.28891 4.16966 3.68521 6.13549 2.62352L6.32545 2.51571H6.54621C7.22343 2.45731 7.89617 2.66991 8.41685 3.10686C8.93754 3.54381 9.26366 4.16944 9.32368 4.84652L10.217 14.9861C10.4624 16.7415 10.0747 18.5269 9.12346 20.0225C8.69221 20.6694 7.99399 21.2341 6.60782 22.3584C4.44129 24.1297 3.4145 24.6431 2.67007 24.6431ZM2.37744 21.5627C2.42164 21.9292 2.5499 22.2806 2.75222 22.5895C3.67758 22.103 4.5397 21.5047 5.31919 20.808C6.08638 20.2611 6.79061 19.6309 7.41898 18.929C8.10156 17.8255 8.36909 16.5152 8.17368 15.2325L7.28037 4.98001C7.27612 4.9111 7.25801 4.84376 7.22714 4.78201C7.19627 4.72026 7.15325 4.66537 7.10068 4.62063C7.04085 4.57134 6.97065 4.53624 6.89532 4.51795C5.37945 5.38597 4.13509 6.65877 3.30155 8.19386C3.08079 8.58918 2.45958 9.75459 2.17208 13.3997C1.96196 16.1206 2.03077 18.8558 2.37744 21.5627Z" fill="url(#paint1_linear_249_1179)"/>
<path d="M21.9738 24.643C21.2345 24.643 20.2077 24.1296 18.036 22.3533C16.6498 21.2289 15.9516 20.6642 15.5204 20.0173C14.5689 18.5162 14.1831 16.7253 14.432 14.9655L15.315 4.80027C15.375 4.12319 15.7012 3.49756 16.2218 3.06061C16.7425 2.62366 17.4153 2.41106 18.0925 2.46946H18.3132L18.4827 2.59781C20.4485 3.65949 22.0682 5.26319 23.1494 7.21837C23.591 8.04493 24.207 9.56972 24.4945 13.2148C24.7148 16.0813 24.6408 18.9628 24.2738 21.8142V21.8809C23.9247 23.6778 23.1135 24.3144 22.4974 24.5301C22.3305 24.5969 22.1534 24.6351 21.9738 24.643ZM17.7485 4.52817C17.6732 4.54646 17.603 4.58156 17.5431 4.63085C17.4394 4.71882 17.3747 4.84438 17.3635 4.97996L16.4702 15.1657C16.2715 16.4551 16.5391 17.7729 17.2248 18.8827C17.8532 19.5847 18.5574 20.2149 19.3246 20.7617C20.1041 21.4584 20.9662 22.0567 21.8916 22.5432C22.0939 22.2344 22.2222 21.883 22.2664 21.5164C22.6117 18.8163 22.6805 16.088 22.4718 13.374C22.1842 9.75454 21.563 8.58913 21.3628 8.21435C20.5254 6.67257 19.2735 5.39574 17.7485 4.52817Z" fill="url(#paint2_linear_249_1179)"/>
<g filter="url(#filter0_b_249_1179)">
<path d="M12 11C11.7348 11 11.4804 10.8946 11.2929 10.7071C11.1054 10.5196 11 10.2652 11 10V1C11 0.734784 11.1054 0.48043 11.2929 0.292893C11.4804 0.105357 11.7348 0 12 0C12.2652 0 12.5196 0.105357 12.7071 0.292893C12.8946 0.48043 13 0.734784 13 1V10C13 10.2652 12.8946 10.5196 12.7071 10.7071C12.5196 10.8946 12.2652 11 12 11Z" fill="#EB5757"/>
</g>
<defs>
<filter id="filter0_b_249_1179" x="-14" y="-25" width="52" height="61" filterUnits="userSpaceOnUse" color-interpolation-filters="sRGB">
<feFlood flood-opacity="0" result="BackgroundImageFix"/>
<feGaussianBlur in="BackgroundImageFix" stdDeviation="12.5"/>
<feComposite in2="SourceAlpha" operator="in" result="effect1_backgroundBlur_249_1179"/>
<feBlend mode="normal" in="SourceGraphic" in2="effect1_backgroundBlur_249_1179" result="shape"/>
</filter>
<linearGradient id="paint0_linear_249_1179" x1="0.00585924" y1="12.8121" x2="24.0282" y2="12.931" gradientUnits="userSpaceOnUse">
<stop offset="0.33125" stop-color="#EB5757"/>
<stop offset="0.555208" stop-color="#F80000"/>
<stop offset="0.654167" stop-color="#EB5757"/>
</linearGradient>
<linearGradient id="paint1_linear_249_1179" x1="0.00585924" y1="12.8121" x2="24.0282" y2="12.931" gradientUnits="userSpaceOnUse">
<stop offset="0.33125" stop-color="#EB5757"/>
<stop offset="0.555208" stop-color="#F80000"/>
<stop offset="0.654167" stop-color="#EB5757"/>
</linearGradient>
<linearGradient id="paint2_linear_249_1179" x1="0.00585924" y1="12.8121" x2="24.0282" y2="12.931" gradientUnits="userSpaceOnUse">
<stop offset="0.33125" stop-color="#EB5757"/>
<stop offset="0.555208" stop-color="#F80000"/>
<stop offset="0.654167" stop-color="#EB5757"/>
</linearGradient>
</defs>
</svg>
