<svg width="49" height="50" viewBox="0 0 49 50" fill="none" xmlns="http://www.w3.org/2000/svg">
<g id="24 / security / lock">
<path id="icon" fill-rule="evenodd" clip-rule="evenodd" d="M14.5919 15.0431V21.1551H12.5684C10.4066 21.1551 8.52148 22.7369 8.52148 24.8903V41.8681C8.52148 44.0215 10.4066 45.6032 12.5684 45.6032H36.85C39.0118 45.6032 40.897 44.0215 40.897 41.8681V24.8903C40.897 22.7369 39.0118 21.1551 36.85 21.1551H34.8266V15.0431C34.8266 9.41718 30.2969 4.85645 24.7092 4.85645C19.1216 4.85645 14.5919 9.41718 14.5919 15.0431ZM30.7796 15.0431V21.1551H18.6388V15.0431C18.6388 11.6676 21.3566 8.93112 24.7092 8.93112C28.0618 8.93112 30.7796 11.6676 30.7796 15.0431ZM12.5684 41.5285V25.2298H36.85V41.5285H12.5684ZM26.7327 33.3792C26.7327 34.5044 25.8268 35.4165 24.7092 35.4165C23.5917 35.4165 22.6858 34.5044 22.6858 33.3792C22.6858 32.254 23.5917 31.3418 24.7092 31.3418C25.8268 31.3418 26.7327 32.254 26.7327 33.3792Z" fill="#19295A"/>
</g>
</svg>
