<svg width="153" height="37" viewBox="0 0 153 37" fill="none" xmlns="http://www.w3.org/2000/svg">
<g clip-path="url(#clip0_14_250)">
<rect width="153" height="37" rx="18.5" fill="#1C316A"/>
<path d="M42.459 29V7.52539H45.3008V26.4658H55.877V29H42.459ZM57.957 21.2217C57.957 18.3408 58.7578 16.207 60.3594 14.8203C61.6973 13.668 63.3281 13.0918 65.252 13.0918C67.3906 13.0918 69.1387 13.7949 70.4961 15.2012C71.8535 16.5977 72.5322 18.5312 72.5322 21.002C72.5322 23.0039 72.2295 24.5811 71.624 25.7334C71.0283 26.876 70.1543 27.7646 69.002 28.3994C67.8594 29.0342 66.6094 29.3516 65.252 29.3516C63.0742 29.3516 61.3115 28.6533 59.9639 27.2568C58.626 25.8604 57.957 23.8486 57.957 21.2217ZM60.667 21.2217C60.667 23.2139 61.1016 24.708 61.9707 25.7041C62.8398 26.6904 63.9336 27.1836 65.252 27.1836C66.5605 27.1836 67.6494 26.6855 68.5186 25.6895C69.3877 24.6934 69.8223 23.1748 69.8223 21.1338C69.8223 19.21 69.3828 17.7549 68.5039 16.7686C67.6348 15.7725 66.5508 15.2744 65.252 15.2744C63.9336 15.2744 62.8398 15.7676 61.9707 16.7539C61.1016 17.7402 60.667 19.2295 60.667 21.2217ZM75.1543 30.2891L77.7178 30.6699C77.8252 31.4609 78.123 32.0371 78.6113 32.3984C79.2656 32.8867 80.1592 33.1309 81.292 33.1309C82.5127 33.1309 83.4551 32.8867 84.1191 32.3984C84.7832 31.9102 85.2324 31.2266 85.4668 30.3477C85.6035 29.8105 85.667 28.6826 85.6572 26.9639C84.5049 28.3213 83.0693 29 81.3506 29C79.2119 29 77.5566 28.2285 76.3848 26.6855C75.2129 25.1426 74.627 23.292 74.627 21.1338C74.627 19.6494 74.8955 18.2822 75.4326 17.0322C75.9697 15.7725 76.7461 14.8008 77.7617 14.1172C78.7871 13.4336 79.9883 13.0918 81.3652 13.0918C83.2012 13.0918 84.7148 13.834 85.9062 15.3184V13.4434H88.3379V26.8906C88.3379 29.3125 88.0889 31.0264 87.5908 32.0322C87.1025 33.0479 86.3213 33.8486 85.2471 34.4346C84.1826 35.0205 82.8691 35.3135 81.3066 35.3135C79.4512 35.3135 77.9521 34.8936 76.8096 34.0537C75.667 33.2236 75.1152 31.9688 75.1543 30.2891ZM77.3369 20.9434C77.3369 22.9844 77.7422 24.4736 78.5527 25.4111C79.3633 26.3486 80.3789 26.8174 81.5996 26.8174C82.8105 26.8174 83.8262 26.3535 84.6465 25.4258C85.4668 24.4883 85.877 23.0234 85.877 21.0312C85.877 19.127 85.4521 17.6914 84.6025 16.7246C83.7627 15.7578 82.7471 15.2744 81.5557 15.2744C80.3838 15.2744 79.3877 15.7529 78.5674 16.71C77.7471 17.6572 77.3369 19.0684 77.3369 20.9434ZM92.3516 10.5576V7.52539H94.9883V10.5576H92.3516ZM92.3516 29V13.4434H94.9883V29H92.3516ZM99.0166 29V13.4434H101.39V15.6553C102.532 13.9463 104.183 13.0918 106.341 13.0918C107.278 13.0918 108.138 13.2627 108.919 13.6045C109.71 13.9365 110.301 14.376 110.691 14.9229C111.082 15.4697 111.355 16.1191 111.512 16.8711C111.609 17.3594 111.658 18.2139 111.658 19.4346V29H109.021V19.5371C109.021 18.4629 108.919 17.6621 108.714 17.1348C108.509 16.5977 108.143 16.1729 107.615 15.8604C107.098 15.5381 106.487 15.377 105.784 15.377C104.661 15.377 103.689 15.7334 102.869 16.4463C102.059 17.1592 101.653 18.5117 101.653 20.5039V29H99.0166Z" fill="#F8F8FF"/>
</g>
<defs>
<clipPath id="clip0_14_250">
<rect width="153" height="37" rx="18.5" fill="white"/>
</clipPath>
</defs>
</svg>
