<svg width="39" height="39" viewBox="0 0 39 39" fill="none" xmlns="http://www.w3.org/2000/svg">
<g clip-path="url(#clip0_243_884)">
<path fill-rule="evenodd" clip-rule="evenodd" d="M19.1005 38.3149C29.5962 38.3149 38.1045 29.8066 38.1045 19.311C38.1045 8.81546 29.5962 0.307129 19.1005 0.307129C8.60501 0.307129 0.0966797 8.81546 0.0966797 19.311C0.0966797 29.8066 8.60501 38.3149 19.1005 38.3149ZM22.0338 14.9901C23.6537 13.3701 23.6537 10.7437 22.0338 9.12367C20.4138 7.5037 17.7874 7.5037 16.1674 9.12367C14.5475 10.7437 14.5475 13.3701 16.1674 14.9901L19.1005 17.9232L22.0338 14.9901ZM23.4216 22.2442C25.0415 23.8642 27.668 23.8642 29.288 22.2442C30.9079 20.6243 30.9079 17.9978 29.288 16.3778C27.668 14.7579 25.0415 14.7579 23.4216 16.3778L20.4884 19.3111L23.4216 22.2442ZM22.0338 29.4984C23.6537 27.8784 23.6537 25.252 22.0338 23.632L19.1005 20.6989L16.1674 23.632C14.5475 25.252 14.5475 27.8784 16.1674 29.4984C17.7874 31.1184 20.4138 31.1184 22.0338 29.4984ZM8.91319 22.2442C7.29326 20.6243 7.29326 17.9978 8.91319 16.3778C10.5332 14.7579 13.1596 14.7579 14.7796 16.3778L17.7128 19.3111L14.7796 22.2442C13.1596 23.8642 10.5332 23.8642 8.91319 22.2442Z" fill="#7F57F1"/>
</g>
<defs>
<clipPath id="clip0_243_884">
<rect width="38.958" height="38.958" fill="white"/>
</clipPath>
</defs>
</svg>
