<svg width="49" height="50" viewBox="0 0 49 50" fill="none" xmlns="http://www.w3.org/2000/svg">
<path fill-rule="evenodd" clip-rule="evenodd" d="M24.2816 47.547C11.9887 47.547 2.02344 37.5134 2.02344 25.1363C2.02344 12.7592 11.9887 2.72559 24.2816 2.72559C36.5744 2.72559 46.5397 12.7592 46.5397 25.1363C46.5397 37.5134 36.5744 47.547 24.2816 47.547ZM39.2542 35.5769C41.2962 32.614 42.4928 29.0158 42.4928 25.1363C42.4928 15.0096 34.3394 6.80026 24.2816 6.80026C14.2238 6.80026 6.07037 15.0096 6.07037 25.1363C6.07037 29.0158 7.26702 32.614 9.30894 35.5769C11.5863 32.5483 16.9376 31.2483 24.2816 31.2483C31.6256 31.2483 36.9769 32.5483 39.2542 35.5769ZM36.3509 38.8675C35.7587 36.7234 31.5041 35.323 24.2816 35.323C17.0591 35.323 12.8045 36.7234 12.2122 38.8675C15.4255 41.7328 19.6518 43.4723 24.2816 43.4723C28.9114 43.4723 33.1377 41.7328 36.3509 38.8675ZM24.2816 12.9123C19.383 12.9123 16.1877 16.4893 16.1877 21.0616C16.1877 28.0443 19.7508 31.2483 24.2816 31.2483C28.7698 31.2483 32.3755 28.1508 32.3755 21.4691C32.3755 16.8272 29.1666 12.9123 24.2816 12.9123ZM20.2346 21.0616C20.2346 25.6849 21.8903 27.1736 24.2816 27.1736C26.6646 27.1736 28.3285 25.7442 28.3285 21.4691C28.3285 18.9233 26.7414 16.9869 24.2816 16.9869C21.7193 16.9869 20.2346 18.6491 20.2346 21.0616Z" fill="#19295A"/>
</svg>
